<svg id="Layer_1" data-name="Layer 1" xmlns="http://www.w3.org/2000/svg" viewBox="0 0 200 75"><defs><style>.cls-1{fill:#00664a;}.cls-2{fill:#83b817;}</style></defs><title>alpinoperle-logo</title><path class="cls-1" d="M21.27,44.09a3.23,3.23,0,0,1,.82-2q.76-.88,2-2.09Q35.74,29.2,42.88,22.93T52,15.27a5.25,5.25,0,0,1,1.45-.54,2.92,2.92,0,0,0,1.33-.61q.36-.36.39-.09a.9.9,0,0,1-.09.51,8,8,0,0,0-1,2.09,14.55,14.55,0,0,0-.48,2q-.06.24-.33,1.6t-.63,3.33q-.36,2-.76,4.24l-.76,4.36q-.36,2.09-.58,3.75t-.27,2.33a4.79,4.79,0,0,0,.21,1.6,2.09,2.09,0,0,0,.51.85,1.29,1.29,0,0,0,.61.33,2.57,2.57,0,0,0,.48.06,3.56,3.56,0,0,0,.73-.09l.91-.21c.32-.08.49-.06.52.06s-.13.22-.45.3l-.88.24-1.45.42q-.82.24-1.63.45t-1.42.33q-.91,0-1.21-1.21.06-.36.24-1.54t.39-2.51q.21-1.33.39-2.51a13.31,13.31,0,0,0,.18-1.54,2.06,2.06,0,0,0-.64-1.36,3.62,3.62,0,0,0-1.85-1,8.77,8.77,0,0,0-1.64-.18q-1.21-.06-2.91-.06t-3.45,0a22.23,22.23,0,0,1-2.54-.15q-4.6,4.18-7.72,7.63A57.57,57.57,0,0,0,23,43.85a7,7,0,0,0-.7,1.42A8.5,8.5,0,0,0,22,46.94q-.12.36-.36.18ZM36.89,29.32q.06.36.79.54a9.52,9.52,0,0,0,1.73.24q1,.06,2.09.06h1.82q1.94,0,3.15,0a9,9,0,0,1,1.7.15,2.2,2.2,0,0,0,.7.15c.06,0,.13-.17.21-.45q.24-1.21.61-3.27l.73-4.12.64-3.6q.27-1.54.33-1.79.12-.48,0-.51t-.61.33q-.18.12-1,.82l-2.15,1.79-2.85,2.39q-1.54,1.3-3,2.6T38.95,27.2Q37.67,28.41,36.89,29.32Z"/><path class="cls-1" d="M85.09,2.8a7.33,7.33,0,0,1-.67,2.48,31.71,31.71,0,0,1-1.91,3.78,52.64,52.64,0,0,1-3,4.6,51.32,51.32,0,0,1-4.06,4.87,50,50,0,0,1-5,4.63,38.92,38.92,0,0,1-5.81,3.91q-.55,1-1.51,2.6T61.2,33.13q-.94,1.82-1.63,3.57a8.36,8.36,0,0,0-.7,3q0,1.94,1.76,1.94a6.83,6.83,0,0,0,3.15-.85,18.08,18.08,0,0,0,3.12-2.06,30.83,30.83,0,0,0,2.79-2.57q1.3-1.36,2.21-2.45.42-.42.48-.21a.47.47,0,0,1-.18.45q-1.09,1.33-2.57,2.85a29.37,29.37,0,0,1-3.15,2.79A18.89,18.89,0,0,1,63,41.67a8.52,8.52,0,0,1-3.63.85,3,3,0,0,1-2.27-.76,2.63,2.63,0,0,1-.7-1.85,8.24,8.24,0,0,1,.94-3.12q.94-2,2.21-4.27t2.54-4.24q1.27-2,1.88-3L66.1,21.6q1.12-1.91,2.21-3.72l2.09-3.48q1-1.66,1.85-2.94,1-1.57,2.12-3A18.11,18.11,0,0,1,77.15,5.7a24.91,24.91,0,0,1,4.24-3,7.45,7.45,0,0,1,2.6-1,1.13,1.13,0,0,1,.79.27A1,1,0,0,1,85.09,2.8ZM82.36,4.37q0-1-.79-1a1.51,1.51,0,0,0-.67.18,4.1,4.1,0,0,0-.94.76,19.4,19.4,0,0,0-1.39,1.6L76.49,8.61q-.49.67-1.36,1.94t-2.24,3.36Q71.52,16,69.62,19.06L65.1,26.29a36.6,36.6,0,0,0,6.81-5,44.24,44.24,0,0,0,5.48-6,33.53,33.53,0,0,0,3.63-6A12.3,12.3,0,0,0,82.36,4.37Z"/><path class="cls-1" d="M86.3,32.77a22.5,22.5,0,0,1-6.87,6,30.32,30.32,0,0,1-7.66,2.88q-1.39.3-2.42.48l-2.06.36q-1.76,3-3.33,5.9T60.8,54.27q-2.3,4.3-4.18,8.11t-4.06,7.57a2.92,2.92,0,0,1-1.15,1.12,9.61,9.61,0,0,1-1.7.7q-1,.3-2.24.61a26.26,26.26,0,0,0-2.79.85q-.36.18-.42-.09c0-.18.06-.31.3-.39a25.19,25.19,0,0,0,2.66-1.18,9.78,9.78,0,0,0,2-1.36,11.68,11.68,0,0,0,1.67-1.88q.79-1.09,1.82-2.72t2.51-4.21q1.48-2.51,3.3-5.54t3.81-6.45q2-3.42,4.06-6.87Q66,42.4,66,41.85a.4.4,0,0,1,.39-.42q.39-.06.64-.12l2.79-4.54q1.94-3.15,3.88-6.54a52.53,52.53,0,0,1,4-6.06,1.52,1.52,0,0,1,.67-.36,2.07,2.07,0,0,1,.48-.12l.73-.12.67-.09.36,0c.12,0,.18,0,.18.12a.67.67,0,0,1-.24.42q-1.27,1.15-2.24,2.21t-1.82,2.06q-.85,1-1.6,2t-1.54,2.24q.61-.67,1.33-1.39t1.45-1.33a9,9,0,0,1,1.45-1,2.84,2.84,0,0,1,1.33-.39,1.42,1.42,0,0,1,1,.36A1.59,1.59,0,0,1,80.3,30a5.74,5.74,0,0,1-.51,1.88A12.14,12.14,0,0,1,78,34.71,22,22,0,0,1,74.73,38a24.48,24.48,0,0,1-5.15,3.15q1.63-.18,3.66-.58a20.54,20.54,0,0,0,4.21-1.33,22.15,22.15,0,0,0,4.36-2.54,20.57,20.57,0,0,0,4.12-4.15.17.17,0,0,1,.21-.09C86.25,32.46,86.3,32.57,86.3,32.77ZM77.82,31.2a2.6,2.6,0,0,0-.09-.61q-.09-.36-.64-.36a2,2,0,0,0-.88.33,11.19,11.19,0,0,0-1.3.91,13.69,13.69,0,0,0-1.51,1.42,18.06,18.06,0,0,0-1.51,1.88q-1,1.45-2,3.12t-1.94,3.42a11.88,11.88,0,0,0,3.78-1.82,19.15,19.15,0,0,0,3.15-2.79,14.69,14.69,0,0,0,2.15-3A5.75,5.75,0,0,0,77.82,31.2Z"/><path class="cls-1" d="M96,34.35a27.5,27.5,0,0,1-3.33,3.57,28.73,28.73,0,0,1-3.45,2.72,10.82,10.82,0,0,1-2.48,1.21,7.35,7.35,0,0,1-2.3.42,6.87,6.87,0,0,1-.85-.06,2.15,2.15,0,0,1-.88-.3,2.19,2.19,0,0,1-.67-.64,1.83,1.83,0,0,1-.27-1.06,5.74,5.74,0,0,1,.61-2.15q.6-1.36,1.42-2.82t1.63-2.79q.82-1.33,1.3-2a2.28,2.28,0,0,1,1.06-.82,3.37,3.37,0,0,1,1-.33c.2,0,.3.06.3.18a1.16,1.16,0,0,1-.09.36,1,1,0,0,1-.21.36q-.79,1.21-1.6,2.66t-1.48,2.82a21.93,21.93,0,0,0-1.06,2.51A6,6,0,0,0,84.3,40a1.31,1.31,0,0,0,.39,1.06,1.58,1.58,0,0,0,1.06.33,5.52,5.52,0,0,0,2.66-.82,20.76,20.76,0,0,0,2.88-2,27.6,27.6,0,0,0,2.63-2.42A23.56,23.56,0,0,0,95.8,34q.3-.3.33-.15A.89.89,0,0,1,96,34.35ZM91.41,24a2.22,2.22,0,0,1-.64,1.45,1.87,1.87,0,0,1-1.42.73.64.64,0,0,1-.73-.73A2.41,2.41,0,0,1,89.2,24a1.75,1.75,0,0,1,1.42-.73A.7.7,0,0,1,91.41,24Z"/><path class="cls-1" d="M110.52,34.47A33,33,0,0,1,108,37.52a22.86,22.86,0,0,1-3,2.76,18.68,18.68,0,0,1-3.27,2,7.57,7.57,0,0,1-3.24.79,4,4,0,0,1-1.33-.21,1,1,0,0,1-.61-1.06,5.38,5.38,0,0,1,.61-2.15q.6-1.3,1.42-2.76t1.7-3a26.32,26.32,0,0,0,1.42-2.79.66.66,0,0,0,0-.51q-.09-.21-.39,0a18.56,18.56,0,0,0-1.57,1.15q-.91.73-1.85,1.54T96.08,35a18.28,18.28,0,0,0-1.42,1.51Q93.68,38,93,39.25T91.26,42.1q-.24.36-.36.36-.3,0-.51-.67a3.91,3.91,0,0,1-.21-.85,2.74,2.74,0,0,1,.76-1.48l1.67-2.09q1-1.94,2-4.09t1.76-3.85a.6.6,0,0,1,.55-.3,1,1,0,0,1,1,1A6.72,6.72,0,0,1,97,31.77a29.19,29.19,0,0,0-1.73,3.3q1.15-1,2.51-2.18t2.6-2.12q1.24-1,2.18-1.6a3.09,3.09,0,0,1,1.3-.64.59.59,0,0,1,.45.27.86.86,0,0,1,.21.51,1.62,1.62,0,0,1-.3.73q-.67,1-1.64,2.48t-1.85,3.12a31.93,31.93,0,0,0-1.48,3.06,6.45,6.45,0,0,0-.61,2.3,1.31,1.31,0,0,0,.3,1,1.42,1.42,0,0,0,1,.27,5.11,5.11,0,0,0,2.42-.79,22.21,22.21,0,0,0,2.88-2A24.69,24.69,0,0,0,108,36.89a20.42,20.42,0,0,0,2.18-2.79.27.27,0,0,1,.36-.09Q110.82,34.1,110.52,34.47Z"/><path class="cls-1" d="M127.41,32a12.37,12.37,0,0,1-2.51,2.51,5.43,5.43,0,0,1-3.36,1.12,4.38,4.38,0,0,1-2-.51,3.92,3.92,0,0,1-1.6-1.54q-.42,1-1.09,2.21a21.18,21.18,0,0,1-1.57,2.48,15.49,15.49,0,0,1-2,2.27,11.22,11.22,0,0,1-2.39,1.7,4.7,4.7,0,0,1-1.82.48q-2.18,0-2.18-1.94a6.88,6.88,0,0,1,.39-2.24,13.78,13.78,0,0,1,1-2.24,20.8,20.8,0,0,1,1.3-2.06,12.83,12.83,0,0,1,1.3-1.57,12.65,12.65,0,0,1,2.91-2.36,8.41,8.41,0,0,1,3.51-1.15A9.93,9.93,0,0,1,117.6,28a1.11,1.11,0,0,1,.85-.76l.61-.12a2.12,2.12,0,0,0,.55-.18.34.34,0,0,1,.36,0c.12.06.14.17.06.33a5,5,0,0,0-.64,1.7,11.08,11.08,0,0,0-.21,2.24,5.47,5.47,0,0,0,.64,2.79A2.34,2.34,0,0,0,122,35.07a4.41,4.41,0,0,0,2.85-1A11,11,0,0,0,127,31.8q.12-.3.39-.18C127.56,31.7,127.57,31.82,127.41,32Zm-10,.42a9.4,9.4,0,0,1-.18-1.27c0-.48-.06-.95-.06-1.39,0-.2-.08-.3-.24-.3a2.64,2.64,0,0,0-1.39.45,7.71,7.71,0,0,0-1.45,1.21,18.86,18.86,0,0,0-1.45,1.73,21.51,21.51,0,0,0-1.33,2,22.47,22.47,0,0,0-1.42,2.88,6.91,6.91,0,0,0-.58,2.94,2,2,0,0,0,.15.79.67.67,0,0,0,.7.36,3.43,3.43,0,0,0,2.24-1.15,18.06,18.06,0,0,0,2.3-2.69,21.84,21.84,0,0,0,1.85-3.12A9.24,9.24,0,0,0,117.42,32.41Z"/><path class="cls-1" d="M153.87,20.54a7.17,7.17,0,0,1-.94,3.3,11.73,11.73,0,0,1-2.69,3.33A14.52,14.52,0,0,1,146,29.71a15.39,15.39,0,0,1-5.72,1,7.67,7.67,0,0,1-2.66-.42q-.18-.12-.18-.24a.21.21,0,0,1,.24-.24,5.71,5.71,0,0,0,1.12.24,10.48,10.48,0,0,0,1.54.12,10.07,10.07,0,0,0,4.27-.91,11.26,11.26,0,0,0,5.63-5.63A8.8,8.8,0,0,0,151,20q0-2.54-1.54-3.45a7.22,7.22,0,0,0-3.72-.91,11.28,11.28,0,0,0-2.73.3,2,2,0,0,0-1.21,1l-2.75,4.63q-1.6,2.7-3.24,5.57t-3.15,5.6q-1.51,2.72-2.54,4.72a5.19,5.19,0,0,0-.67,2.18,1.62,1.62,0,0,0,1,1.6,7.14,7.14,0,0,0,2.91.45q.67,0,.67.18c0,.12-.1.2-.3.24q-1.09.18-2.45.3t-2.69.12a7.36,7.36,0,0,1-.76-.06,5.52,5.52,0,0,1-1-.21,2.76,2.76,0,0,1-.85-.42.89.89,0,0,1-.36-.76,3.19,3.19,0,0,1,.3-1.09,44.69,44.69,0,0,1,2.24-4.24q1.39-2.36,2.66-4.48,1.51-2.54,3.27-5.66t3.09-5.6a6.36,6.36,0,0,0,.36-.7L138,18.3q.24-.54.42-1a2.37,2.37,0,0,0,.18-.67c0-.16-.1-.24-.3-.24q-1.94.06-3.78.3a29,29,0,0,1-3.78.24q-1.15,0-1.15-.67a2.6,2.6,0,0,1,.21-.64c.14-.34.27-.51.39-.51s.14.08.18.24.28.34.73.42a7.52,7.52,0,0,0,1.33.15q.79,0,1.51,0,1.82,0,3.69-.12t3.54-.3l3-.3q1.3-.12,2-.12a15.44,15.44,0,0,1,2.69.24,7.74,7.74,0,0,1,2.48.88,5.24,5.24,0,0,1,1.82,1.7A4.7,4.7,0,0,1,153.87,20.54Z"/><path class="cls-1" d="M160.93,35.07a28.75,28.75,0,0,1-2.45,2.63,23.1,23.1,0,0,1-3.09,2.48A17.64,17.64,0,0,1,151.94,42a9.71,9.71,0,0,1-3.54.7q-2.85,0-2.85-2.54a9,9,0,0,1,.88-3.66,15.42,15.42,0,0,1,2.27-3.63,14.67,14.67,0,0,1,3.06-2.79A5.74,5.74,0,0,1,154.93,29a1.77,1.77,0,0,1,1.18.3,1,1,0,0,1,.33.79,3.37,3.37,0,0,1-.45,1.57,5.49,5.49,0,0,1-1.36,1.6,7.74,7.74,0,0,1-2.3,1.27A9.62,9.62,0,0,1,149,35a9.62,9.62,0,0,0-.67,1.73,8.09,8.09,0,0,0-.36,2.39q0,2.48,2.24,2.48a7,7,0,0,0,2.88-.67A16.6,16.6,0,0,0,156,39.28a20.72,20.72,0,0,0,2.57-2.18,22.54,22.54,0,0,0,2-2.21.24.24,0,0,1,.42.18Zm-6.36-4.72a.7.7,0,0,0-.79-.79,2.14,2.14,0,0,0-1.24.45,6.69,6.69,0,0,0-1.24,1.18,15.81,15.81,0,0,0-1.15,1.57,13.66,13.66,0,0,0-.91,1.63,1.32,1.32,0,0,0,.42.09l.48,0a4.39,4.39,0,0,0,3.09-1.24A3.89,3.89,0,0,0,154.57,30.35Z"/><path class="cls-1" d="M170.89,29.93a9.84,9.84,0,0,0-.76,1,5.9,5.9,0,0,0-.51.91.24.24,0,0,1-.24.18s-.1-.06-.18-.18a2.79,2.79,0,0,0-.33-.39,2.23,2.23,0,0,0-.58-.39,2.35,2.35,0,0,0-1-.18,3.65,3.65,0,0,0-1.76.54,9.09,9.09,0,0,0-1.7,1.21,13.38,13.38,0,0,0-2,2.12q-.88,1.15-1.67,2.39t-1.51,2.54q-.73,1.3-1.57,2.63c0,.12-.16.18-.36.18s-.25-.12-.51-.36-.39-.42-.39-.54a2.51,2.51,0,0,1,.42-1.09l2-3.42L160,33.86q.88-1.51,1.54-2.63a18.06,18.06,0,0,0,.91-1.67c.2-.36.34-.54.42-.54a1.91,1.91,0,0,1,.61.3,1,1,0,0,1,.48.85,1.64,1.64,0,0,1-.21.61c-.14.28-.3.58-.48.88l-.51.88q-.24.42-.36.61c-.12.2-.14.3-.06.3a.5.5,0,0,0,.3-.18q.6-.6,1.48-1.33A20.72,20.72,0,0,1,166,30.56a13.91,13.91,0,0,1,1.91-1.06,4.13,4.13,0,0,1,1.67-.42,1.61,1.61,0,0,1,.94.27A.74.74,0,0,1,170.89,29.93Z"/><path class="cls-1" d="M197.29,2.8a7.33,7.33,0,0,1-.67,2.48,31.71,31.71,0,0,1-1.91,3.78,52.64,52.64,0,0,1-3,4.6,51.32,51.32,0,0,1-4.06,4.87,50,50,0,0,1-5,4.63,38.92,38.92,0,0,1-5.81,3.91q-.55,1-1.51,2.6t-1.91,3.45q-.94,1.82-1.63,3.57a8.36,8.36,0,0,0-.7,3q0,1.94,1.76,1.94a6.83,6.83,0,0,0,3.15-.85,18.08,18.08,0,0,0,3.12-2.06,30.83,30.83,0,0,0,2.79-2.57q1.3-1.36,2.21-2.45.42-.42.48-.21a.47.47,0,0,1-.18.45q-1.09,1.33-2.57,2.85a29.37,29.37,0,0,1-3.15,2.79,18.89,18.89,0,0,1-3.48,2.12,8.52,8.52,0,0,1-3.63.85,3,3,0,0,1-2.27-.76,2.63,2.63,0,0,1-.7-1.85,8.24,8.24,0,0,1,.94-3.12q.94-2,2.21-4.27t2.54-4.24q1.27-2,1.88-3l2.15-3.66q1.12-1.91,2.21-3.72l2.09-3.48q1-1.66,1.85-2.94,1-1.57,2.12-3a18.11,18.11,0,0,1,2.79-2.79,24.91,24.91,0,0,1,4.24-3,7.45,7.45,0,0,1,2.6-1A1.13,1.13,0,0,1,197,2,1,1,0,0,1,197.29,2.8Zm-4,1.57q0-1-.79-1a1.51,1.51,0,0,0-.67.18,4.1,4.1,0,0,0-.94.76,19.4,19.4,0,0,0-1.39,1.6l-2.09,2.66q-.49.67-1.36,1.94t-2.24,3.36q-1.36,2.09-3.27,5.15L176,26.29a36.6,36.6,0,0,0,6.81-5,44.24,44.24,0,0,0,5.48-6,33.53,33.53,0,0,0,3.63-6A12.3,12.3,0,0,0,193.29,4.37Z"/><path class="cls-1" d="M195.5,35.07A28.75,28.75,0,0,1,193,37.71,23.1,23.1,0,0,1,190,40.19,17.64,17.64,0,0,1,186.51,42a9.71,9.71,0,0,1-3.54.7q-2.85,0-2.85-2.54a9,9,0,0,1,.88-3.66,15.42,15.42,0,0,1,2.27-3.63,14.67,14.67,0,0,1,3.06-2.79A5.74,5.74,0,0,1,189.51,29a1.77,1.77,0,0,1,1.18.3A1,1,0,0,1,191,30a3.37,3.37,0,0,1-.45,1.57,5.49,5.49,0,0,1-1.36,1.6,7.74,7.74,0,0,1-2.3,1.27,9.62,9.62,0,0,1-3.33.51,9.62,9.62,0,0,0-.67,1.73,8.09,8.09,0,0,0-.36,2.39q0,2.48,2.24,2.48a7,7,0,0,0,2.88-.67,16.6,16.6,0,0,0,2.88-1.67,20.72,20.72,0,0,0,2.57-2.18,22.54,22.54,0,0,0,2-2.21.24.24,0,0,1,.42.18Zm-6.36-4.72a.7.7,0,0,0-.79-.79,2.14,2.14,0,0,0-1.24.45,6.69,6.69,0,0,0-1.24,1.18,15.81,15.81,0,0,0-1.15,1.57,13.66,13.66,0,0,0-.91,1.63,1.32,1.32,0,0,0,.42.09l.48,0a4.39,4.39,0,0,0,3.09-1.24A3.89,3.89,0,0,0,189.14,30.35Z"/><path class="cls-2" d="M21.38,36.81a3.11,3.11,0,0,0-3.38-3,6.91,6.91,0,0,0-3.39.84,4,4,0,0,0-1,.81c-.09.11-.61.71-.55.85a4.06,4.06,0,0,0-2.32-2c-1.45-.55-3.44-.79-4.76.17a3,3,0,0,0-1.2,2.39,3,3,0,0,0,2.5,2.95A15.56,15.56,0,0,0,9,39.83a3,3,0,0,1,1.4.33,2.9,2.9,0,0,1,1,1.26,6.48,6.48,0,0,0,.56.89c.38.49.93,1,1.59.66a2.85,2.85,0,0,0,1-1.24,5,5,0,0,1,.92-1.32,2.55,2.55,0,0,1,1.72-.61,11.79,11.79,0,0,0,1.79-.06A3,3,0,0,0,21.38,36.81Z"/><path class="cls-1" d="M154.57,25.86s-.27-1.38,1.59-1.38c0,0,1.17.11,1.38-1.33,0,0,1.63,1.16-.45,3.16A1.45,1.45,0,0,1,154.57,25.86Z"/><path class="cls-1" d="M73.13,70.32V70h.75l-.79-2H71l-.76,2h.71q.14,0,.14.28H69.12V70h.68L72.12,64h.78L75.4,70h.43q.14,0,.14.28ZM72,65.25l-.91,2.43H73Z"/><path class="cls-1" d="M80.41,70.32V70h.85V64.26h-.85V64h3.53a2.5,2.5,0,0,1,1.44.4,1.46,1.46,0,0,1,.7,1.26,1.65,1.65,0,0,1-.06.46,1.76,1.76,0,0,1-1.37,1.21L86.28,70h.24q.17,0,.17.26H84.83l-1.58-2.91h-.52V70h.85v.29Zm2.33-6.06v2.85h.66a1,1,0,0,0,.56-.16,1.37,1.37,0,0,0,.55-1.26,2.2,2.2,0,0,0-.07-.57,1.08,1.08,0,0,0-1.12-.86Z"/><path class="cls-1" d="M95.89,69.74a2.87,2.87,0,0,1-2.06.69,3.48,3.48,0,0,1-2-.54,1.5,1.5,0,0,1,0,.29q-.05.17-.34.17V68.1h.41a3,3,0,0,0,.23,1,1.6,1.6,0,0,0,1.58,1,1.63,1.63,0,0,0,.54-.08,1,1,0,0,0,.68-1,1,1,0,0,0-.1-.43,2.56,2.56,0,0,0-1.13-.92q-1-.52-1.14-.6a1.78,1.78,0,0,1-1-1.5,1.44,1.44,0,0,1,.41-1,2.56,2.56,0,0,1,1.93-.67,4.3,4.3,0,0,1,1.85.41,1.24,1.24,0,0,1,0-.17q.05-.2.35-.2v1.92H95.7a1.85,1.85,0,0,0-.28-1,1.46,1.46,0,0,0-1.3-.66,1.4,1.4,0,0,0-.42.06.8.8,0,0,0-.6.83,1.07,1.07,0,0,0,.11.47,2.47,2.47,0,0,0,1.11.92l1.11.59a1.79,1.79,0,0,1,1,1.5A1.59,1.59,0,0,1,95.89,69.74Z"/><path class="cls-1" d="M102.24,70.32V70h1V64.26h-.18a1.28,1.28,0,0,0-.61.14,1.55,1.55,0,0,0-.6.89l-.33,1h-.32l0-2.26h5.48l0,2.26h-.32l-.33-1-.14-.35a1.1,1.1,0,0,0-1.08-.68h-.18V70h.72a.32.32,0,0,1,.29.29Z"/><path class="cls-1" d="M111.26,64h3.17v.29h-.85v3.65a4.9,4.9,0,0,0,.1,1A1.27,1.27,0,0,0,115,70.11q1.69,0,1.7-2.2V64.26h-.85V64h2.08v.29h-.85v3.59a4.24,4.24,0,0,1-.17,1.28,2,2,0,0,1-2.15,1.3q-2.66,0-2.68-2.43V64.26h-.85Z"/><path class="cls-1" d="M128.73,70.32V70h.85V64.26h-.85V64h3.53a2.77,2.77,0,0,1,1.21.24,1.48,1.48,0,0,1,.89,1.43,1.87,1.87,0,0,1-.14.73q-.47,1.15-2.3,1.15h-.87V70h.77a.32.32,0,0,1,.29.29Zm2.33-6.06v3h.56q1.13,0,1.15-1.47t-1.11-1.48Z"/><path class="cls-1" d="M138.9,70.32V70h.85V64.26h-.85V64h3.53a2.5,2.5,0,0,1,1.44.4,1.46,1.46,0,0,1,.7,1.26,1.65,1.65,0,0,1-.06.46,1.76,1.76,0,0,1-1.37,1.21L144.78,70H145q.17,0,.17.26h-1.86l-1.58-2.91h-.52V70h.85v.29Zm2.33-6.06v2.85h.66a1,1,0,0,0,.56-.16,1.37,1.37,0,0,0,.55-1.26,2.2,2.2,0,0,0-.07-.57,1.08,1.08,0,0,0-1.12-.86Z"/><path class="cls-1" d="M153.42,70.32V70h.75l-.79-2h-2.11l-.76,2h.71q.14,0,.14.28h-1.95V70h.68L152.41,64h.78l2.5,6.06h.43q.14,0,.14.28Zm-1.11-5.07-.91,2.43h1.85Z"/><path class="cls-1" d="M160.7,70.32V70h.85V64.26h-.85V64h3.17v.29H163V67l3-2.73h-.85V64h2a.55.55,0,0,1,0,.11q0,.18-.28.18h-.14a2.12,2.12,0,0,0-.69.49l-1.61,1.45L167,70h.1a.32.32,0,0,1,.29.29h-2l-2-3.14-.34.31V70h.56a.32.32,0,0,1,.29.29Z"/><path class="cls-1" d="M176.6,69.74a2.87,2.87,0,0,1-2.06.69,3.48,3.48,0,0,1-2-.54,1.5,1.5,0,0,1,0,.29q-.05.17-.34.17V68.1h.41a3,3,0,0,0,.23,1,1.6,1.6,0,0,0,1.58,1A1.63,1.63,0,0,0,175,70a1,1,0,0,0,.68-1,1,1,0,0,0-.1-.43,2.56,2.56,0,0,0-1.13-.92q-1-.52-1.14-.6a1.78,1.78,0,0,1-1-1.5,1.44,1.44,0,0,1,.41-1,2.56,2.56,0,0,1,1.93-.67,4.3,4.3,0,0,1,1.85.41,1.24,1.24,0,0,1,0-.17q.05-.2.35-.2v1.92h-.41a1.85,1.85,0,0,0-.28-1,1.46,1.46,0,0,0-1.3-.66,1.4,1.4,0,0,0-.42.06.8.8,0,0,0-.6.83,1.07,1.07,0,0,0,.11.47,2.47,2.47,0,0,0,1.11.92l1.11.59a1.79,1.79,0,0,1,1,1.5A1.59,1.59,0,0,1,176.6,69.74Z"/><path class="cls-1" d="M187,66l-.23-.73-.07-.19a1.19,1.19,0,0,0-1.2-.83h-1.2v2.63h2v.32h-2V70h1.2a1.66,1.66,0,0,0,.38,0,1.33,1.33,0,0,0,.88-1l.24-.73h.31l0,2H182V70h.85V64.26H182V64h5.29l0,2Z"/><path d="M71.83,62.3H74v.41H71.83Z"/><path class="cls-2" d="M17.73,25a3,3,0,0,0-2.1.86l-.11.12a4.93,4.93,0,0,1-7.8-5.89A2.19,2.19,0,0,0,3.89,18c-.13.24-.25.49-.36.74a10.14,10.14,0,0,0,15.78,11.8A3,3,0,0,0,17.73,25Z"/><path class="cls-1" d="M22.09,19a6.16,6.16,0,0,0-.92-2.25,5.43,5.43,0,0,0-6.62-1.93c-2.86,1.33-.83,5.1-.83,5.12a3,3,0,0,0-.81-.12,3.07,3.07,0,1,0,2.09.84c.29.27,2.59-.62,3.33-.28A3.82,3.82,0,0,1,19.9,22l.39.76h0a.77.77,0,0,0,.73.48.8.8,0,0,0,.71-.45h0a6.08,6.08,0,0,0,.38-1.34A6.74,6.74,0,0,0,22.09,19ZM11.73,22.61a.73.73,0,1,1,.73-.73A.73.73,0,0,1,11.73,22.61Z"/></svg>